PathFileType	4	(X/Y/Z)
DataRate	CameraRate	NumFrames	NumMarkers	Units	OrigDataRate	OrigDataStartFrame	OrigNumFrames	
  120.0	  120.0	    4	     56	     mm	  120.0	      1	    431
Frame#	Time	LASI			RASI			LPSI			RPSI			RTH1			RTH2			RTH3			RLFC			RMFC			LTH1			LTH2			LTH3			LLFC			LMFC			RTB1			RTB2			RTB3			RLMAL			RMMAL			LTB1			LTB2			LTB3			LMMAL			LLMAL			RCAL			RTOE			RMT5			LCAL			LTOE			LMT5			LACR			RACR			CLAV			C7			LASH			LPSH			RASH			RPSH			RUA1			RUA2			RUA3			RLEL			RMEL			LUA1			LUA2			LUA3			LLEL			LMEL			RFAsuperior			RFAradius			RFAulna			LFAsuperior			LFAradius			LFAulna			RHJC			LHJC			
		X1	Y1	Z1	X2	Y2	Z2	X3	Y3	Z3	X4	Y4	Z4	X5	Y5	Z5	X6	Y6	Z6	X7	Y7	Z7	X8	Y8	Z8	X9	Y9	Z9	X10	Y10	Z10	X11	Y11	Z11	X12	Y12	Z12	X13	Y13	Z13	X14	Y14	Z14	X15	Y15	Z15	X16	Y16	Z16	X17	Y17	Z17	X18	Y18	Z18	X19	Y19	Z19	X20	Y20	Z20	X21	Y21	Z21	X22	Y22	Z22	X23	Y23	Z23	X24	Y24	Z24	X25	Y25	Z25	X26	Y26	Z26	X27	Y27	Z27	X28	Y28	Z28	X29	Y29	Z29	X30	Y30	Z30	X31	Y31	Z31	X32	Y32	Z32	X33	Y33	Z33	X34	Y34	Z34	X35	Y35	Z35	X36	Y36	Z36	X37	Y37	Z37	X38	Y38	Z38	X39	Y39	Z39	X40	Y40	Z40	X41	Y41	Z41	X42	Y42	Z42	X43	Y43	Z43	X44	Y44	Z44	X45	Y45	Z45	X46	Y46	Z46	X47	Y47	Z47	X48	Y48	Z48	X49	Y49	Z49	X50	Y50	Z50	X51	Y51	Z51	X52	Y52	Z52	X53	Y53	Z53	X54	Y54	Z54	X55	Y55	Z55	X56	Y56	Z56	

1	0.00833	879.45886	1031.39838	-612.57817	886.99574	1025.57718	-375.84636	720.31725	1055.53142	-540.89969	717.81475	1053.44281	-442.82769	806.33592	872.15955	-301.51124	869.90216	739.01205	-303.74170	788.69442	612.35677	-313.28068	805.54649	516.58453	-304.16695	793.76236	503.66955	-428.78993	819.91817	850.19623	-682.80826	872.34708	741.47710	-681.86518	797.76092	627.02916	-664.64623	817.76000	519.26923	-668.91981	808.58045	503.74440	-550.04768	833.81412	373.07879	-338.51452	787.59841	329.86518	-268.33449	809.49918	254.47337	-322.18567	739.99095	139.67951	-266.81186	775.05010	124.27071	-345.19043	844.36076	394.19653	-626.58024	789.08745	337.02412	-708.18684	817.18401	229.98710	-655.24408	785.46101	122.11914	-627.29083	760.99897	125.95508	-710.00701	689.28800	105.26940	-301.82421	896.68970	73.65785	-315.92349	873.90598	64.00823	-222.70993	703.28290	107.26255	-672.18058	908.92329	78.08528	-661.68412	890.61584	64.41964	-751.81386	780.22677	1494.09336	-660.20359	779.23262	1492.14044	-313.14601	847.89376	1482.39234	-463.02973	722.31926	1528.66822	-491.79826	848.42661	1453.78410	-638.25458	725.22987	1441.69140	-680.43453	843.24448	1460.94006	-336.42718	712.12170	1439.42042	-310.27140	832.72580	1443.89326	-202.67296	806.00321	1386.32706	-176.00804	890.13244	1424.69526	-139.83255	933.62021	1403.45436	-81.22533	936.54654	1322.58303	-99.97099	830.48403	1430.99861	-771.11561	847.82182	1380.02396	-817.87308	922.53417	1421.93235	-805.79853	967.18251	1394.70963	-880.39216	946.05103	1319.44251	-858.55798	1055.50904	1415.07907	-121.85060	1170.15989	1380.97977	-176.21643	1176.80310	1384.80853	-104.87196	1093.92718	1398.75734	-841.80701	1186.89957	1346.21165	-766.88926	1204.70641	1371.31246	-829.37943	797.31574	994.42616	-428.60711	812.16717	979.85083	-555.65295	
2	0.01667	879.55817	1031.38915	-612.65120	887.06394	1025.59054	-375.82206	720.43592	1055.56304	-541.03986	717.88493	1053.47630	-442.75156	806.37123	871.81169	-301.86889	870.02594	739.03282	-303.69165	788.69832	611.98098	-313.71431	805.42333	516.15358	-304.97354	793.69859	503.69576	-428.75291	819.99508	850.19164	-682.77789	872.41817	741.48088	-681.89821	797.80807	627.02335	-664.63533	817.77237	519.25789	-668.89987	808.76414	503.62012	-550.07836	833.84680	373.07555	-338.55687	787.64527	329.88169	-268.31412	809.49922	254.46146	-322.13015	740.00371	139.70240	-266.75186	775.05584	124.26990	-345.18824	844.37842	394.18154	-626.52638	789.11613	337.05524	-708.28998	817.19177	229.98019	-655.32898	785.45875	122.12710	-627.28166	761.00878	125.95425	-709.99529	689.31885	105.28427	-301.81767	896.70126	73.65012	-315.91511	873.91828	64.02969	-222.68597	703.29322	107.26057	-672.16164	908.93815	78.08401	-661.68296	890.61589	64.40790	-751.81539	780.25639	1494.11107	-660.18672	779.25387	1492.12366	-313.12030	847.93446	1482.41097	-462.98597	722.33668	1528.66903	-491.71654	848.48780	1453.80567	-638.23139	725.27903	1441.70514	-680.43168	843.25842	1460.92032	-336.45806	712.16598	1439.42089	-310.18297	832.75495	1443.85936	-202.67692	806.04025	1386.27951	-176.00180	890.15200	1424.65740	-139.79415	933.68747	1403.42947	-81.19791	936.58952	1322.54900	-99.98816	830.52046	1430.98043	-771.09078	847.86208	1380.04784	-817.85105	922.56958	1421.95544	-805.79449	967.21281	1394.72677	-880.36140	946.08496	1319.45878	-858.55589	1055.54393	1415.04916	-121.84618	1170.22390	1380.97084	-176.19082	1176.83511	1384.76488	-104.89484	1093.95984	1398.75990	-841.82336	1186.98944	1346.34143	-766.78823	1204.74164	1371.32867	-829.35880	797.39290	994.45031	-428.63082	812.24551	979.86017	-555.67512	
3	0.02500	879.64302	1031.38454	-612.68195	887.13030	1025.59873	-375.81782	720.51747	1055.57908	-541.07526	717.95122	1053.50667	-442.68225	806.40687	871.46816	-302.21800	870.15158	739.06503	-303.61999	788.73321	611.77700	-313.95249	805.36509	515.89515	-305.47421	793.69678	503.70731	-428.72942	820.06847	850.19498	-682.76702	872.47800	741.48820	-681.90469	797.85208	627.02251	-664.63262	817.79024	519.25167	-668.87752	808.87770	503.54467	-550.09300	833.87090	373.06011	-338.50100	787.68237	329.86522	-268.32515	809.52989	254.47196	-322.13477	740.01708	139.71925	-266.71659	775.06460	124.26866	-345.18484	844.39837	394.17205	-626.48924	789.14352	337.07942	-708.35683	817.20685	229.97958	-655.38968	785.46045	122.13395	-627.27633	761.01463	125.95536	-709.98580	689.34715	105.29766	-301.81246	896.71239	73.64595	-315.90716	873.93197	64.03901	-222.68097	703.30327	107.26216	-672.15551	908.95371	78.08291	-661.68478	890.61950	64.39826	-751.82251	780.28834	1494.12830	-660.17718	779.27833	1492.10644	-313.09867	847.96798	1482.42676	-462.95819	722.35774	1528.66631	-491.65505	848.54680	1453.82432	-638.21315	725.32665	1441.71013	-680.43317	843.27349	1460.90427	-336.48459	712.20251	1439.41945	-310.12051	832.78547	1443.82904	-202.67814	806.07256	1386.23987	-175.99768	890.17819	1424.62191	-139.76556	933.74752	1403.40096	-81.17832	936.63001	1322.51567	-100.00365	830.56119	1430.97661	-771.07198	847.90125	1380.06227	-817.83541	922.60470	1421.97694	-805.78256	967.24772	1394.74455	-880.34652	946.12049	1319.48036	-858.55265	1055.58020	1415.01694	-121.85056	1170.27059	1380.95366	-176.15805	1176.86862	1384.72383	-104.92071	1093.99631	1398.77039	-841.81916	1187.06551	1346.50814	-766.69491	1204.77983	1371.34511	-829.35120	797.47467	994.46413	-428.62699	812.30172	979.86960	-555.67449	
4	0.03333	879.70813	1031.38654	-612.65756	887.19685	1025.59814	-375.83585	720.55699	1055.57649	-540.99488	718.01559	1053.53998	-442.61496	806.44790	871.17271	-302.51359	870.27574	739.11387	-303.52078	788.80199	611.76869	-313.96333	805.40727	515.88513	-305.52422	793.76895	503.70046	-428.72114	820.13291	850.20641	-682.77798	872.52311	741.49800	-681.88390	797.89100	627.02860	-664.63657	817.81733	519.25285	-668.86065	808.92422	503.52151	-550.09495	833.88676	373.03145	-338.34525	787.71099	329.82945	-268.35289	809.59784	254.50904	-322.21064	740.03225	139.72909	-266.70710	775.07534	124.26712	-345.18065	844.42072	394.16962	-626.47371	789.16900	337.09273	-708.37327	817.23096	229.98622	-655.41343	785.46881	122.13775	-627.27765	761.01744	125.95896	-709.98044	689.36972	105.30956	-301.80989	896.72150	73.64580	-315.89935	873.94595	64.03356	-222.69724	703.31299	107.26784	-672.15958	908.96980	78.08192	-661.69002	890.62792	64.39194	-751.83326	780.32426	1494.14179	-660.16747	779.30658	1492.08974	-313.08144	847.99261	1482.43723	-462.94957	722.38318	1528.65697	-491.62536	848.60236	1453.83944	-638.19847	725.37364	1441.70320	-680.44108	843.29345	1460.89557	-336.49550	712.23039	1439.41370	-310.09045	832.81907	1443.80388	-202.67639	806.09919	1386.21188	-175.99497	890.21196	1424.59029	-139.74986	933.79830	1403.36583	-81.17026	936.66725	1322.48194	-100.01627	830.60651	1430.99016	-771.06069	847.94072	1380.07005	-817.83194	922.63781	1421.99149	-805.75368	967.28945	1394.76414	-880.34641	946.15849	1319.50868	-858.54533	1055.61717	1414.98116	-121.86479	1170.29683	1380.92806	-176.12836	1176.90393	1384.68805	-104.94628	1094.03913	1398.79179	-841.78485	1187.11546	1346.67717	-766.63030	1204.82324	1371.36049	-829.35987	797.55967	994.46667	-428.59001	812.33266	979.88070	-555.64585	
